<svg width="149" height="80" viewBox="0 0 149 80" fill="none" xmlns="http://www.w3.org/2000/svg">
<path d="M15.696 60.384C11.44 60.384 8.032 59.584 5.472 57.984C2.912 56.352 1.632 53.872 1.632 50.544C1.632 48.784 1.936 47.44 2.544 46.512C3.152 45.584 4.048 45.12 5.232 45.12C6.096 45.12 6.8 45.344 7.344 45.792C7.888 46.24 8.16 46.816 8.16 47.52C8.16 48.16 8.112 48.72 8.016 49.2C8.016 49.328 7.984 49.552 7.92 49.872C7.888 50.192 7.872 50.528 7.872 50.88C7.872 52.32 8.592 53.392 10.032 54.096C11.504 54.8 13.552 55.152 16.176 55.152C18.896 55.152 21.024 54.672 22.56 53.712C24.096 52.72 24.864 51.344 24.864 49.584C24.864 48.496 24.512 47.568 23.808 46.8C23.104 46 22.224 45.344 21.168 44.832C20.112 44.288 18.624 43.632 16.704 42.864C14.24 41.904 12.224 40.992 10.656 40.128C9.12 39.264 7.792 38.096 6.672 36.624C5.584 35.12 5.04 33.264 5.04 31.056C5.04 28.752 5.648 26.704 6.864 24.912C8.112 23.12 9.888 21.728 12.192 20.736C14.528 19.744 17.264 19.248 20.4 19.248C22.736 19.248 24.88 19.6 26.832 20.304C28.784 20.976 30.336 22.016 31.488 23.424C32.672 24.832 33.264 26.56 33.264 28.608C33.264 30.624 32.96 32.144 32.352 33.168C31.744 34.192 30.848 34.704 29.664 34.704C28.832 34.704 28.128 34.448 27.552 33.936C27.008 33.424 26.736 32.816 26.736 32.112C26.736 31.504 26.784 30.944 26.88 30.432C26.976 29.472 27.024 28.864 27.024 28.608C27.024 27.264 26.368 26.24 25.056 25.536C23.744 24.832 22.112 24.48 20.16 24.48C17.408 24.48 15.296 24.992 13.824 26.016C12.384 27.008 11.664 28.416 11.664 30.24C11.664 31.456 12.032 32.496 12.768 33.36C13.536 34.224 14.48 34.944 15.6 35.52C16.72 36.096 18.288 36.784 20.304 37.584C22.736 38.576 24.688 39.472 26.16 40.272C27.632 41.072 28.88 42.16 29.904 43.536C30.96 44.912 31.488 46.608 31.488 48.624C31.488 52.4 30.048 55.312 27.168 57.36C24.32 59.376 20.496 60.384 15.696 60.384ZM40.2469 60.24C38.8069 60.24 37.6229 59.584 36.6949 58.272C35.7989 56.928 35.3509 55.264 35.3509 53.28C35.3509 50.88 35.5109 48.688 35.8309 46.704C36.1509 44.688 36.6789 42.56 37.4149 40.32C37.7349 39.36 38.1829 38.672 38.7589 38.256C39.3349 37.84 40.2469 37.632 41.4949 37.632C42.1989 37.632 42.6789 37.744 42.9349 37.968C43.2229 38.192 43.3669 38.528 43.3669 38.976C43.3669 39.232 43.1909 40.096 42.8389 41.568C42.5189 42.752 42.2629 43.824 42.0709 44.784C41.4309 48.144 41.1109 50.384 41.1109 51.504C41.1109 52.176 41.1909 52.656 41.3509 52.944C41.5109 53.2 41.7669 53.328 42.1189 53.328C42.5989 53.328 43.1909 52.848 43.8949 51.888C44.6309 50.928 45.3989 49.472 46.1989 47.52C47.0309 45.568 47.8309 43.168 48.5989 40.32C48.8549 39.36 49.2389 38.672 49.7509 38.256C50.2949 37.84 51.0949 37.632 52.1509 37.632C52.8869 37.632 53.3989 37.728 53.6869 37.92C53.9749 38.08 54.1189 38.4 54.1189 38.88C54.1189 39.68 53.7189 41.872 52.9189 45.456C52.0229 49.552 51.5749 52.08 51.5749 53.04C51.5749 53.648 51.7029 54.128 51.9589 54.48C52.2149 54.8 52.5509 54.96 52.9669 54.96C53.6069 54.96 54.3589 54.576 55.2229 53.808C56.1189 53.008 57.3029 51.728 58.7749 49.968C59.1589 49.52 59.5909 49.296 60.0709 49.296C60.4869 49.296 60.8069 49.488 61.0309 49.872C61.2869 50.256 61.4149 50.784 61.4149 51.456C61.4149 52.736 61.1109 53.728 60.5029 54.432C59.1269 56.128 57.6389 57.52 56.0389 58.608C54.4709 59.696 52.6789 60.24 50.6629 60.24C49.1269 60.24 47.9909 59.648 47.2549 58.464C46.5509 57.28 46.1989 55.616 46.1989 53.472C45.6549 55.648 44.8389 57.328 43.7509 58.512C42.6629 59.664 41.4949 60.24 40.2469 60.24ZM84.7868 49.296C85.2028 49.296 85.5228 49.488 85.7468 49.872C86.0028 50.256 86.1308 50.784 86.1308 51.456C86.1308 52.736 85.8268 53.728 85.2188 54.432C83.9068 56.032 82.4668 57.408 80.8988 58.56C79.3308 59.68 77.7788 60.24 76.2428 60.24C73.8108 60.24 71.9548 58.816 70.6748 55.968C69.3308 57.664 68.1468 58.8 67.1228 59.376C66.1308 59.952 64.9628 60.24 63.6188 60.24C61.6668 60.24 60.0508 59.52 58.7708 58.08C57.5228 56.608 56.8988 54.704 56.8988 52.368C56.8988 49.808 57.4428 47.44 58.5308 45.264C59.6188 43.056 61.1068 41.264 62.9948 39.888C64.9148 38.48 67.0588 37.648 69.4268 37.392C70.0348 31.184 71.1868 25.888 72.8828 21.504C74.6108 17.088 76.8668 14.88 79.6508 14.88C81.0268 14.88 82.1628 15.504 83.0588 16.752C83.9868 18 84.4508 19.888 84.4508 22.416C84.4508 26 83.5708 30.192 81.8108 34.992C80.0508 39.792 77.6988 44.72 74.7548 49.776C74.8828 51.632 75.1548 52.96 75.5708 53.76C76.0188 54.56 76.5788 54.96 77.2508 54.96C78.1148 54.96 78.9948 54.576 79.8907 53.808C80.7868 53.04 81.9868 51.76 83.4908 49.968C83.8748 49.52 84.3068 49.296 84.7868 49.296ZM79.1228 19.584C78.5148 19.584 77.9068 20.672 77.2988 22.848C76.6908 24.992 76.1628 27.808 75.7148 31.296C75.2988 34.784 74.9948 38.432 74.8028 42.24C78.3868 34.432 80.1788 28.16 80.1788 23.424C80.1788 22.208 80.0668 21.264 79.8428 20.592C79.6508 19.92 79.4108 19.584 79.1228 19.584ZM65.2988 55.392C65.9068 55.392 66.5148 55.152 67.1228 54.672C67.7308 54.16 68.4988 53.232 69.4268 51.888C69.1068 50.16 68.9468 48.224 68.9468 46.08C68.9468 45.312 68.9788 44.064 69.0428 42.336C67.2828 42.88 65.8108 44.064 64.6268 45.888C63.4748 47.68 62.8988 49.68 62.8988 51.888C62.8988 54.224 63.6988 55.392 65.2988 55.392ZM106.706 45.264C107.122 45.264 107.442 45.472 107.666 45.888C107.89 46.304 108.002 46.832 108.002 47.472C108.002 49.008 107.538 49.92 106.61 50.208C104.69 50.88 102.578 51.264 100.274 51.36C99.6659 54.048 98.4659 56.208 96.6739 57.84C94.8819 59.44 92.8499 60.24 90.5779 60.24C88.6579 60.24 87.0099 59.776 85.6339 58.848C84.2899 57.92 83.2659 56.688 82.5619 55.152C81.8579 53.616 81.5059 51.952 81.5059 50.16C81.5059 47.728 81.9699 45.568 82.8979 43.68C83.8259 41.76 85.1059 40.272 86.7379 39.216C88.3699 38.128 90.1779 37.584 92.1619 37.584C94.5939 37.584 96.5459 38.432 98.0179 40.128C99.5219 41.792 100.402 43.856 100.658 46.32C102.162 46.224 103.954 45.904 106.034 45.36C106.29 45.296 106.514 45.264 106.706 45.264ZM90.9619 55.152C91.9859 55.152 92.8659 54.736 93.6019 53.904C94.3699 53.072 94.8819 51.872 95.1379 50.304C94.1459 49.632 93.3779 48.752 92.8339 47.664C92.3219 46.576 92.0659 45.424 92.0659 44.208C92.0659 43.696 92.1139 43.184 92.2099 42.672H91.9699C90.6899 42.672 89.6179 43.296 88.7539 44.544C87.9219 45.76 87.5059 47.488 87.5059 49.728C87.5059 51.488 87.8419 52.832 88.5139 53.76C89.2179 54.688 90.0339 55.152 90.9619 55.152ZM131.626 49.296C132.042 49.296 132.362 49.488 132.586 49.872C132.842 50.256 132.97 50.784 132.97 51.456C132.97 52.736 132.666 53.728 132.058 54.432C130.618 56.192 129.162 57.6 127.69 58.656C126.218 59.712 124.474 60.24 122.458 60.24C119.994 60.24 118.01 59.536 116.506 58.128C115.002 56.72 114.25 54.848 114.25 52.512C114.25 51.264 114.89 50.368 116.17 49.824C117.578 49.216 118.586 48.576 119.194 47.904C119.802 47.2 120.106 46.352 120.106 45.36C120.106 44.784 119.978 44.352 119.722 44.064C119.498 43.776 119.21 43.632 118.858 43.632C117.994 43.632 117.034 44.256 115.978 45.504C114.954 46.752 113.994 48.368 113.098 50.352C112.202 52.304 111.498 54.32 110.986 56.4C110.634 57.904 110.218 58.928 109.738 59.472C109.29 59.984 108.57 60.24 107.578 60.24C106.586 60.24 105.85 59.888 105.37 59.184C104.922 58.448 104.618 57.328 104.458 55.824C104.298 54.32 104.218 52.112 104.218 49.2C104.218 44.272 104.714 39.136 105.706 33.792C106.73 28.448 108.218 23.968 110.17 20.352C112.154 16.704 114.522 14.88 117.274 14.88C118.746 14.88 119.93 15.52 120.826 16.8C121.754 18.048 122.218 19.68 122.218 21.696C122.218 24.928 121.274 28.288 119.386 31.776C117.498 35.232 114.426 39.28 110.17 43.92C110.074 45.584 110.026 47.296 110.026 49.056C111.562 45.056 113.322 42.16 115.306 40.368C117.29 38.544 119.146 37.632 120.874 37.632C122.474 37.632 123.754 38.176 124.714 39.264C125.706 40.352 126.202 41.696 126.202 43.296C126.202 45.056 125.754 46.672 124.858 48.144C123.962 49.616 122.426 50.928 120.25 52.08C120.378 52.944 120.762 53.648 121.402 54.192C122.074 54.704 122.874 54.96 123.802 54.96C124.794 54.96 125.754 54.576 126.682 53.808C127.61 53.04 128.826 51.76 130.33 49.968C130.714 49.52 131.146 49.296 131.626 49.296ZM116.266 19.632C115.69 19.632 115.05 20.464 114.346 22.128C113.642 23.76 112.954 25.984 112.282 28.8C111.642 31.584 111.114 34.624 110.698 37.92C112.682 35.584 114.314 33.04 115.594 30.288C116.906 27.536 117.562 25.04 117.562 22.8C117.562 21.776 117.45 20.992 117.226 20.448C117.002 19.904 116.682 19.632 116.266 19.632ZM134.093 60.24C132.589 60.24 131.373 59.632 130.445 58.416C129.549 57.168 129.101 55.456 129.101 53.28C129.101 50.88 129.261 48.688 129.581 46.704C129.901 44.688 130.429 42.56 131.165 40.32C131.485 39.36 131.933 38.672 132.509 38.256C133.085 37.84 133.997 37.632 135.245 37.632C135.949 37.632 136.429 37.744 136.685 37.968C136.973 38.192 137.117 38.528 137.117 38.976C137.117 39.232 136.941 40.096 136.589 41.568C136.269 42.752 136.013 43.824 135.821 44.784C135.181 48.144 134.861 50.384 134.861 51.504C134.861 52.176 134.941 52.656 135.101 52.944C135.261 53.2 135.517 53.328 135.869 53.328C136.349 53.328 136.957 52.848 137.693 51.888C138.429 50.896 139.197 49.424 139.997 47.472C140.829 45.488 141.613 43.104 142.349 40.32C142.605 39.36 142.989 38.672 143.501 38.256C144.045 37.84 144.845 37.632 145.901 37.632C146.605 37.632 147.101 37.824 147.389 38.208C147.709 38.56 147.869 39.104 147.869 39.84C147.869 40.64 147.805 41.536 147.677 42.528C147.549 43.488 147.405 44.48 147.245 45.504C146.925 47.552 146.669 49.424 146.477 51.12C146.285 52.784 146.189 54.688 146.189 56.832C146.189 58.048 145.933 58.928 145.421 59.472C144.941 59.984 144.141 60.24 143.021 60.24C141.837 60.24 141.005 59.936 140.525 59.328C140.077 58.688 139.853 57.472 139.853 55.68C139.853 55.328 139.885 54.544 139.949 53.328C139.405 55.568 138.589 57.28 137.501 58.464C136.445 59.648 135.309 60.24 134.093 60.24Z" fill="white"/>
</svg>
